<svg width="188" height="216" viewBox="0 0 188 216" fill="none" xmlns="http://www.w3.org/2000/svg">
  <path d="M94 0L188 54V162L94 216L0 162V54L94 0Z" fill="white"/>
  <path d="M94 25L166 66V149L94 191L22 149V66L94 25Z" fill="white"/>
  <path d="M94 57L139 83V132L94 158L49 132L94 106L123 122V93L94 76L65 93V122L28 101V72L94 35L160 72V143L94 181L28 143L28 114L94 152L123 135L94 118L49 144L94 170L151 137V78L94 45L37 78V98L65 82V109L94 92L123 109V147L94 164L37 131L37 84L94 57Z" fill="black"/>
</svg>
